<svg width="22" height="12" viewBox="0 0 22 12" fill="none" xmlns="http://www.w3.org/2000/svg">
<path d="M20.9392 2.14889C20.9421 1.91494 20.8529 1.68659 20.6839 1.49561C20.5149 1.30462 20.2744 1.16048 19.996 1.08323C19.7177 1.00598 19.4152 0.999452 19.1307 1.06456C18.8461 1.12966 18.5937 1.26316 18.4084 1.44651L11.0572 8.44624L3.49903 1.67335C3.38116 1.55027 3.23234 1.44795 3.06176 1.37281C2.89117 1.29767 2.70251 1.25133 2.50769 1.23668C2.31287 1.22203 2.11607 1.23938 1.92955 1.28767C1.74303 1.33595 1.57079 1.41412 1.42371 1.51728C1.27664 1.62044 1.15798 1.74636 1.07491 1.88716C0.991835 2.02797 0.946297 2.18062 0.941102 2.33556C0.935909 2.4905 0.97108 2.64438 1.04463 2.78759C1.11818 2.93079 1.22841 3.06022 1.36842 3.16777L10.014 10.9222C10.1494 11.044 10.3167 11.1409 10.5045 11.2062C10.6923 11.2716 10.8962 11.3038 11.1019 11.3007C11.3076 11.2975 11.5104 11.2591 11.6962 11.1881C11.8819 11.1171 12.0463 11.0151 12.178 10.8893L20.5919 2.87528C20.8124 2.67272 20.9356 2.41532 20.9395 2.14889L20.9392 2.14889Z" fill="#1ab51a"/>
</svg>
